<svg xmlns="http://www.w3.org/2000/svg" viewBox="0 0 512 512" xmlns:v="https://vecta.io/nano">
	<path d="M486.28 80.5L256 309.8 25.72 80.5c-9.284 4.442-16.77 11.927-21.2 21.2l219.674 218.674c16.963 16.963 46.685 16.963 63.618 0L507.5 101.72c-4.442-9.283-11.927-16.767-21.2-21.2zM63.633 76L256 267.367 448.367 76zM0 139.635V391c0 19.53 12.578 36.024 30 42.237V169.635l-30-30zm422 89.998L310.027 341.605c-14.135 14.15-33.96 21.944-54.027 21.944s-38.892-7.793-53.042-21.943L90 229.638l-30-30.002V436h392V199.633l-30 30zm60-60v263.604c17.422-6.213 30-22.707 30-42.237V139.633l-30 30z"/></svg>