<svg xmlns="http://www.w3.org/2000/svg" viewBox="0 0 468.317 468.317" xmlns:v="https://vecta.io/nano">
	<path d="M23.22 114.92H445.06v252.716H23.22z" fill="#d4d5db"/>
	<path d="M468.3 390.256H0l234.145-163.942z" fill="#e0e5e8"/>
	<g fill="#e56354">
		<path d="M468.317 89.42v289.457c0 6.304-5.62 11.358-12.488 11.358h-33.967V78.06h33.967c3.372 0 6.37 1.25 8.617 3.18 2.373 2.043 3.87 4.996 3.87 8.177z"/>
		<path d="M464.446 81.242L247.408 261.9c-7.305 6.645-19.17 6.645-26.474 0L3.833 81.242c2.31-1.93 5.308-3.18 8.68-3.18H455.83c3.372 0 6.37 1.25 8.617 3.18z"/>
	</g>
	<path d="M50.413 78.084h367.463l-170.268 143.04c-7.362 6.92-19.563 6.92-26.925 0L50.413 78.084z" fill="#ebeff2"/>
	<path d="M46.417 78.06v312.173H12.512c-6.93 0-12.488-5.054-12.488-11.358V89.42c0-3.18 1.436-6.134 3.81-8.177 2.31-1.93 5.308-3.18 8.68-3.18h33.905z" fill="#e56354"/>
</svg>