<svg xmlns="http://www.w3.org/2000/svg" height="512" viewBox="0 0 24 24" width="512" xmlns:v="https://vecta.io/nano">
	<linearGradient id="A" gradientUnits="userSpaceOnUse" x1="1.546" x2="22.461" y1="21.062" y2="2.96">
		<stop offset="0" stop-color="#fd5"/>
		<stop offset=".5" stop-color="#ff543e"/>
		<stop offset="1" stop-color="#c837ab"/>
	</linearGradient>
<path d="M1.5 1.633C-.386 3.592 0 5.673 0 11.995c0 5.25-.916 10.513 3.878 11.752 1.497.385 14.76.385 16.256-.002 1.996-.515 3.62-2.134 3.842-4.957a976.78 976.78 0 0 0-.001-13.587C23.74 2.194 21.888.46 19.45.1c-.56-.08-.67-.105-3.54-.1C5.737.005 3.507-.448 1.5 1.633z" fill="url(#A)"/>
<path d="M11.998 3.14c-3.63 0-7.08-.323-8.396 3.057-.544 1.396-.465 3.21-.465 5.805 0 2.278-.073 4.42.465 5.804 1.314 3.382 4.8 3.058 8.394 3.058 3.477 0 7.062.362 8.395-3.058.545-1.4.465-3.196.465-5.804 0-3.462.19-5.697-1.488-7.375-1.7-1.7-4-1.487-7.374-1.487zm-.794 1.597c7.574-.012 8.538-.854 8.006 10.843-.19 4.137-3.34 3.683-7.21 3.683-7.06 0-7.263-.202-7.263-7.265 0-7.145.56-7.257 6.468-7.263zm5.524 1.47c-.587 0-1.063.476-1.063 1.063s.476 1.063 1.063 1.063 1.063-.476 1.063-1.063-.476-1.063-1.063-1.063zm-4.73 1.243a4.55 4.55 0 0 0 0 9.101 4.55 4.55 0 0 0 0-9.101zm0 1.597c3.905 0 3.9 5.908 0 5.908-3.904 0-3.9-5.908 0-5.908z" fill="#fff"/></svg>