<svg xmlns="http://www.w3.org/2000/svg" height="512" viewBox="0 0 24 24" width="512" xmlns:v="https://vecta.io/nano"><path d="M23.155 13.893C23.87 7.866 22.8 4.06 20.9 2.34h.001C17.814-.6 7.392-1.035 3.7 2.47 2.042 4.186 1.458 6.703 1.394 9.82s-.14 8.956 5.3 10.54H6.7l-.005 2.42s-.037.98.6 1.177c.716.232 1.04-.223 3.267-2.883 3.724.323 6.584-.417 6.9-.525.752-.252 5.007-.815 5.695-6.654zM10.918 19.37s-2.357 2.94-3.1 3.702c-.24.248-.503.225-.5-.267l.018-4.016c-4.613-1.322-4.34-6.294-4.3-8.895s.526-4.733 1.93-6.168C8.225.7 17.362 1.368 19.7 3.556c2.846 2.523 1.833 9.65 1.84 9.894-.585 4.874-4.033 5.183-4.667 5.394-.27.1-2.786.737-5.944.526zm1.304-15.073c-.385 0-.385.6 0 .605 2.987.023 5.447 2.105 5.474 5.924 0 .403.6.398.585-.005h-.001c-.032-4.115-2.718-6.5-6.058-6.524zm3.928 5.896c-.01.398.58.417.585.014.05-2.27-1.35-4.138-3.98-4.335-.385-.028-.425.577-.04.605 2.28.173 3.48 1.73 3.435 3.716zm-.63 2.58c-.494-.286-.997-.108-1.205.173l-.435.563c-.22.286-.634.248-.634.248-3.014-.797-3.82-3.95-3.82-3.95s-.037-.427.24-.656l.544-.45c.272-.216.444-.736.167-1.247-.74-1.337-1.237-1.798-1.5-2.152-.266-.333-.666-.408-1.082-.183h-.01c-.865.506-1.812 1.453-1.5 2.428.517 1.028 1.467 4.305 4.495 6.78 1.423 1.17 3.675 2.37 4.63 2.648V17c.942.314 1.858-.67 2.347-1.56v-.007c.217-.43.145-.84-.172-1.106-.562-.548-1.4-1.153-2.076-1.542zm-2.35-4.67c.96.056 1.427.558 1.477 1.6.018.403.603.375.585-.028-.064-1.346-.766-2.096-2.03-2.166-.385-.023-.42.582-.032.605z"/></svg>