<svg xmlns="http://www.w3.org/2000/svg" height="512" viewBox="0 0 24 24" width="512" xmlns:v="https://vecta.io/nano">
	<path d="M19.915 13.028c-.388-.5-.277-.708 0-1.146.005-.005 3.208-4.43 3.538-5.932h.002c.164-.547 0-.95-.793-.95h-2.624c-.668 0-.976.345-1.14.73 0 0-1.336 3.198-3.226 5.27-.6.6-.892.79-1.225.79-.164 0-.42-.192-.42-.74V5.95c0-.656-.187-.95-.74-.95H9.16c-.42 0-.668.306-.668.59 0 .622.945.765 1.043 2.515v3.797c0 .832-.15.985-.486.985-.892 0-3.057-3.21-4.34-6.886-.26-.713-.512-1-1.185-1H.9c-.75 0-.9.345-.9.73 0 .682.892 4.073 4.148 8.553C6.318 17.343 9.374 19 12.154 19c1.67 0 1.875-.368 1.875-1 0-2.922-.15-3.198.686-3.198.388 0 1.056.192 2.616 1.667C19.114 18.217 19.407 19 20.405 19h2.624c.748 0 1.127-.368.91-1.094-.5-1.527-3.87-4.668-4.023-4.878z" fill="#4b729f"/>
</svg>