<svg xmlns="http://www.w3.org/2000/svg" height="909.333" viewBox="-23 -21 682 682.667" width="909.333" xmlns:v="https://vecta.io/nano"><path d="M544.387 93.008C484.512 33.063 404.883.035 320.05 0 145.246 0 2.98 142.262 2.9 317.113c-.023 55.895 14.578 110.457 42.332 158.55L.25 640l168.12-44.102c46.324 25.27 98.477 38.586 151.55 38.602h.133c174.785 0 317.066-142.273 317.133-317.133.035-84.742-32.922-164.418-92.8-224.36zM320.05 580.94h-.11c-47.297-.02-93.684-12.73-134.16-36.742l-9.62-5.715-99.766 26.172 26.63-97.27-6.27-9.973c-26.387-41.97-40.32-90.477-40.297-140.28.055-145.332 118.305-263.57 263.7-263.57 70.406.023 136.6 27.477 186.355 77.3s77.156 116.05 77.133 186.484C583.582 462.69 465.34 580.94 320.05 580.94zm144.586-197.418c-7.922-3.97-46.883-23.133-54.148-25.78-7.258-2.645-12.547-3.96-17.824 3.97-5.285 7.93-20.47 25.78-25.094 31.066s-9.242 5.953-17.168 1.984-33.457-12.336-63.727-39.332c-23.555-21.012-39.457-46.96-44.082-54.89-4.617-7.937-.04-11.812 3.477-16.172 8.578-10.652 17.168-21.82 19.81-27.105s1.32-9.918-.664-13.883c-1.977-3.965-17.824-42.97-24.426-58.84-6.437-15.445-12.965-13.36-17.832-13.602-4.617-.23-9.902-.277-15.187-.277s-13.867 1.98-21.133 9.918-27.73 27.102-27.73 66.105 28.395 76.684 32.355 81.973 55.88 85.328 135.367 119.648c18.906 8.172 33.664 13.043 45.176 16.695 18.984 6.03 36.254 5.18 49.9 3.14 15.227-2.277 46.88-19.172 53.488-37.68 6.602-18.512 6.602-34.375 4.617-37.684-1.977-3.305-7.262-5.285-15.184-9.254zm0 0" fill-rule="evenodd"/></svg>